<mxfile host="app.diagrams.net" modified="2024-06-01T02:24:34.857Z" agent="Mozilla/5.0 (Windows NT 10.0; Win64; x64) AppleWebKit/537.36 (KHTML, like Gecko) Chrome/125.0.0.0 Safari/537.36" etag="OLZoCts8jrJcvQIhsCWB" version="24.4.13" type="github" pages="2">
  <diagram name="第 1 页" id="B3vYnTvsGBG1Hv9em8wt">
    <mxGraphModel dx="1050" dy="530" grid="1" gridSize="10" guides="1" tooltips="1" connect="1" arrows="1" fold="1" page="1" pageScale="1" pageWidth="827" pageHeight="1169" math="0" shadow="0">
      <root>
        <mxCell id="0" />
        <mxCell id="1" parent="0" />
        <mxCell id="THLBpQqU5_v84O20wpuA-2" value="" style="shape=table;startSize=0;container=1;collapsible=0;childLayout=tableLayout;fontSize=16;textShadow=0;" vertex="1" parent="1">
          <mxGeometry x="130" y="340" width="250" height="120" as="geometry" />
        </mxCell>
        <mxCell id="THLBpQqU5_v84O20wpuA-3" value="" style="shape=tableRow;horizontal=0;startSize=30;swimlaneHead=0;swimlaneBody=0;strokeColor=inherit;top=0;left=0;bottom=0;right=0;collapsible=0;dropTarget=0;fillColor=none;points=[[0,0.5],[1,0.5]];portConstraint=eastwest;fontSize=16;textShadow=0;" vertex="1" parent="THLBpQqU5_v84O20wpuA-2">
          <mxGeometry width="250" height="40" as="geometry" />
        </mxCell>
        <mxCell id="THLBpQqU5_v84O20wpuA-4" value="" style="shape=partialRectangle;html=1;whiteSpace=wrap;connectable=0;strokeColor=inherit;overflow=hidden;fillColor=none;top=0;left=0;bottom=0;right=0;pointerEvents=1;fontSize=16;textShadow=0;" vertex="1" parent="THLBpQqU5_v84O20wpuA-3">
          <mxGeometry x="30" width="73" height="40" as="geometry">
            <mxRectangle width="73" height="40" as="alternateBounds" />
          </mxGeometry>
        </mxCell>
        <mxCell id="THLBpQqU5_v84O20wpuA-5" value="" style="shape=partialRectangle;html=1;whiteSpace=wrap;connectable=0;strokeColor=inherit;overflow=hidden;fillColor=none;top=0;left=0;bottom=0;right=0;pointerEvents=1;fontSize=16;textShadow=0;" vertex="1" parent="THLBpQqU5_v84O20wpuA-3">
          <mxGeometry x="103" width="74" height="40" as="geometry">
            <mxRectangle width="74" height="40" as="alternateBounds" />
          </mxGeometry>
        </mxCell>
        <mxCell id="THLBpQqU5_v84O20wpuA-6" value="" style="shape=partialRectangle;html=1;whiteSpace=wrap;connectable=0;strokeColor=inherit;overflow=hidden;fillColor=none;top=0;left=0;bottom=0;right=0;pointerEvents=1;fontSize=16;textShadow=0;" vertex="1" parent="THLBpQqU5_v84O20wpuA-3">
          <mxGeometry x="177" width="73" height="40" as="geometry">
            <mxRectangle width="73" height="40" as="alternateBounds" />
          </mxGeometry>
        </mxCell>
        <mxCell id="THLBpQqU5_v84O20wpuA-11" value="" style="shape=tableRow;horizontal=0;startSize=30;swimlaneHead=0;swimlaneBody=0;strokeColor=inherit;top=0;left=0;bottom=0;right=0;collapsible=0;dropTarget=0;fillColor=none;points=[[0,0.5],[1,0.5]];portConstraint=eastwest;fontSize=16;textShadow=0;" vertex="1" parent="THLBpQqU5_v84O20wpuA-2">
          <mxGeometry y="40" width="250" height="40" as="geometry" />
        </mxCell>
        <mxCell id="THLBpQqU5_v84O20wpuA-12" value="" style="shape=partialRectangle;html=1;whiteSpace=wrap;connectable=0;strokeColor=inherit;overflow=hidden;fillColor=none;top=0;left=0;bottom=0;right=0;pointerEvents=1;fontSize=16;textShadow=0;" vertex="1" parent="THLBpQqU5_v84O20wpuA-11">
          <mxGeometry x="30" width="73" height="40" as="geometry">
            <mxRectangle width="73" height="40" as="alternateBounds" />
          </mxGeometry>
        </mxCell>
        <mxCell id="THLBpQqU5_v84O20wpuA-13" value="" style="shape=partialRectangle;html=1;whiteSpace=wrap;connectable=0;strokeColor=inherit;overflow=hidden;fillColor=none;top=0;left=0;bottom=0;right=0;pointerEvents=1;fontSize=16;textShadow=0;" vertex="1" parent="THLBpQqU5_v84O20wpuA-11">
          <mxGeometry x="103" width="74" height="40" as="geometry">
            <mxRectangle width="74" height="40" as="alternateBounds" />
          </mxGeometry>
        </mxCell>
        <mxCell id="THLBpQqU5_v84O20wpuA-14" value="" style="shape=partialRectangle;html=1;whiteSpace=wrap;connectable=0;strokeColor=inherit;overflow=hidden;fillColor=none;top=0;left=0;bottom=0;right=0;pointerEvents=1;fontSize=16;textShadow=0;" vertex="1" parent="THLBpQqU5_v84O20wpuA-11">
          <mxGeometry x="177" width="73" height="40" as="geometry">
            <mxRectangle width="73" height="40" as="alternateBounds" />
          </mxGeometry>
        </mxCell>
        <mxCell id="THLBpQqU5_v84O20wpuA-7" value="" style="shape=tableRow;horizontal=0;startSize=30;swimlaneHead=0;swimlaneBody=0;strokeColor=inherit;top=0;left=0;bottom=0;right=0;collapsible=0;dropTarget=0;fillColor=none;points=[[0,0.5],[1,0.5]];portConstraint=eastwest;fontSize=16;textShadow=0;" vertex="1" parent="THLBpQqU5_v84O20wpuA-2">
          <mxGeometry y="80" width="250" height="40" as="geometry" />
        </mxCell>
        <mxCell id="THLBpQqU5_v84O20wpuA-8" value="" style="shape=partialRectangle;html=1;whiteSpace=wrap;connectable=0;strokeColor=inherit;overflow=hidden;fillColor=none;top=0;left=0;bottom=0;right=0;pointerEvents=1;fontSize=16;textShadow=0;" vertex="1" parent="THLBpQqU5_v84O20wpuA-7">
          <mxGeometry x="30" width="73" height="40" as="geometry">
            <mxRectangle width="73" height="40" as="alternateBounds" />
          </mxGeometry>
        </mxCell>
        <mxCell id="THLBpQqU5_v84O20wpuA-9" value="" style="shape=partialRectangle;html=1;whiteSpace=wrap;connectable=0;strokeColor=inherit;overflow=hidden;fillColor=none;top=0;left=0;bottom=0;right=0;pointerEvents=1;fontSize=16;textShadow=0;" vertex="1" parent="THLBpQqU5_v84O20wpuA-7">
          <mxGeometry x="103" width="74" height="40" as="geometry">
            <mxRectangle width="74" height="40" as="alternateBounds" />
          </mxGeometry>
        </mxCell>
        <mxCell id="THLBpQqU5_v84O20wpuA-10" value="" style="shape=partialRectangle;html=1;whiteSpace=wrap;connectable=0;strokeColor=inherit;overflow=hidden;fillColor=none;top=0;left=0;bottom=0;right=0;pointerEvents=1;fontSize=16;textShadow=0;" vertex="1" parent="THLBpQqU5_v84O20wpuA-7">
          <mxGeometry x="177" width="73" height="40" as="geometry">
            <mxRectangle width="73" height="40" as="alternateBounds" />
          </mxGeometry>
        </mxCell>
      </root>
    </mxGraphModel>
  </diagram>
  <diagram id="xkuAZWn0zsy6626wy6PB" name="第 2 页">
    <mxGraphModel grid="1" page="1" gridSize="10" guides="1" tooltips="1" connect="1" arrows="1" fold="1" pageScale="1" pageWidth="827" pageHeight="1169" math="0" shadow="0">
      <root>
        <mxCell id="0" />
        <mxCell id="1" parent="0" />
      </root>
    </mxGraphModel>
  </diagram>
</mxfile>
